<?xml version="1.0" encoding="utf-8"?>
<!-- Generator: Adobe Illustrator 27.7.0, SVG Export Plug-In . SVG Version: 6.00 Build 0)  -->
<svg version="1.1" id="Komponente_28_1" xmlns="http://www.w3.org/2000/svg" xmlns:xlink="http://www.w3.org/1999/xlink" x="0px"
	 y="0px" viewBox="0 0 60 60" enable-background="new 0 0 60 60" xml:space="preserve">
<g id="Gruppe_1057">
	<g id="Gruppe_1011" transform="translate(0 0)">
		<circle id="Ellipse_15" fill="#7EC399" cx="30" cy="30" r="30"/>
	</g>
</g>
<g id="Gruppe_1095" transform="translate(19.279 15.091)">
	<g>
		<g id="Gruppe_1094" transform="translate(0 0)">
			<g id="Gruppe_1093" transform="translate(0.566 0.566)">
				<path id="Pfad_656" fill="none" stroke="#FFFFFF" stroke-width="1.5" d="M20.6,10.3C20.6,4.6,16,0,10.3,0l0,0
					C4.6,0,0,4.6,0,10.3l0,0C0,18,10.3,29.2,10.3,29.2S20.6,18.1,20.6,10.3z M6.9,10.3c0-1.9,1.5-3.4,3.4-3.4l0,0
					c1.9,0,3.4,1.5,3.4,3.4l0,0c0,1.9-1.5,3.4-3.4,3.4C8.4,13.8,6.9,12.2,6.9,10.3L6.9,10.3z"/>
			</g>
		</g>
	</g>
</g>
</svg>
