<?xml version="1.0" encoding="utf-8"?>
<!-- Generator: Adobe Illustrator 27.7.0, SVG Export Plug-In . SVG Version: 6.00 Build 0)  -->
<svg version="1.1" id="Ebene_1" xmlns="http://www.w3.org/2000/svg" xmlns:xlink="http://www.w3.org/1999/xlink" x="0px" y="0px"
	 viewBox="0 0 283.4 718.3" style="enable-background:new 0 0 283.4 718.3;" xml:space="preserve">
<style type="text/css">
	.st0{fill:#EFF2F2;}
</style>
<path class="st0" d="M283.4,598.8h-55.9c-68.1,0-123.5-55.4-123.5-123.5c0-42.2,21.6-79.1,53.9-101.3l80.3,80.3
	c13.1,13.1,28.5,23.1,45.3,29.8v-21.9c-11.3-5.5-22-12.8-31.2-22l-71-71h102.1v-20H181.3l71-71c9.2-9.2,19.7-16.5,31.2-22v-21.9
	c-16.8,6.7-32.1,16.7-45.3,29.8l-80.3,80.2C125.5,322,104,285.2,104,242.9c0-68.1,55.4-123.5,123.5-123.5h55.9v-20h-55.9
	C148.3,99.5,84,163.9,84,243c0,47.6,23.4,89.8,59.3,115.9l-0.2,0.2l0.2,0.2C107.4,385.5,84,427.7,84,475.4
	c0,79.1,64.4,143.5,143.5,143.5h55.9V598.8z"/>
</svg>
