<?xml version="1.0" encoding="utf-8"?>
<!-- Generator: Adobe Illustrator 27.7.0, SVG Export Plug-In . SVG Version: 6.00 Build 0)  -->
<svg version="1.1" id="Ebene_1" xmlns="http://www.w3.org/2000/svg" xmlns:xlink="http://www.w3.org/1999/xlink" x="0px" y="0px"
	 viewBox="0 0 126.1 37.9" style="enable-background:new 0 0 126.1 37.9;" xml:space="preserve">
<style type="text/css">
	.st0{fill:#244F50;}
	.st1{fill:#7FC299;}
</style>
<g>
	<path class="st0" d="M70.8,32.6h-0.9c0.2,1.3,1.1,1.9,2.6,1.9c1.4,0,2.4-0.6,2.4-1.7c0-1.1-0.9-1.4-1.7-1.6l-1.1-0.3
		c-0.8-0.2-1.1-0.4-1.1-0.9c0-0.5,0.5-0.8,1.3-0.8c0.9,0,1.5,0.4,1.6,1.1h0.9c-0.1-1.3-1.2-1.8-2.5-1.8c-1.3,0-2.3,0.6-2.3,1.7
		c0,1,0.7,1.3,1.7,1.5l1.2,0.2c0.5,0.1,0.9,0.4,0.9,0.9s-0.6,0.9-1.5,0.9C71.6,33.8,71,33.4,70.8,32.6 M67.4,34.4h0.9v-5.6h-0.9
		V34.4z M67.9,27.4c0.4,0,0.6-0.3,0.6-0.6c0-0.4-0.3-0.6-0.6-0.6c-0.4,0-0.6,0.3-0.6,0.6C67.3,27.1,67.5,27.4,67.9,27.4 M65.9,34.4
		l-2.3-2.8l2.2-2.8h-1.1l-1.8,2.1l-1.7-2.1H60l2.2,2.8l0,0L60,34.4h1.1l1.8-2.2l1.8,2.2H65.9z M56,33.7c-1.1,0-2.1-1-2.1-2.1
		c0-1.1,0.9-2.1,2.1-2.1c0.7,0,1.4,0.3,1.9,1v2.3C57.4,33.4,56.8,33.7,56,33.7 M57.8,28.9v0.6c-0.5-0.4-1.1-0.7-1.9-0.7
		c-1.6,0-2.9,1.3-2.9,2.9c0,1.7,1.3,2.9,2.9,2.9c0.8,0,1.5-0.3,1.9-0.7v0.6h0.9v-5.6L57.8,28.9L57.8,28.9z M50.1,29.7v-0.9h-0.9v5.6
		h0.9v-3.6c0.5-0.8,1.2-1.2,2.1-1.2v-0.9C51.3,28.7,50.5,29,50.1,29.7 M44.6,30.9h-1.9v-3.8h1.9c1.3,0,2.3,0.7,2.3,1.9
		C46.9,30.1,46,30.9,44.6,30.9 M44.6,26.2h-2.9v8.2h1v-2.6h1.9c1.9,0,3.3-1.1,3.3-2.8C47.8,27.3,46.6,26.2,44.6,26.2"/>
	<path class="st0" d="M116.8,18.2c1.1,0,1.8,0.7,1.9,1.8h-3.8C115,19,115.6,18.2,116.8,18.2 M116.8,17.4c-1.7,0-2.9,1.3-2.9,2.9
		c0,1.7,1.2,2.9,2.9,2.9c1.2,0,2.2-0.6,2.6-1.6h-1.1c-0.3,0.4-0.8,0.7-1.5,0.7c-1.1,0-1.9-0.8-2-1.9h4.7
		C119.7,18.8,118.5,17.4,116.8,17.4 M110.1,17.4c-0.8,0-1.5,0.3-2,0.8v-3.6h-0.9v8.5h0.9v-4c0.4-0.6,1.1-1,1.9-1
		c1,0,1.7,0.6,1.7,1.8v3.2h0.9V20C112.5,18.4,111.5,17.4,110.1,17.4 M102.9,22.4c-1.2,0-2-1-2-2.1c0-1.1,0.8-2.1,2-2.1
		c0.9,0,1.5,0.4,1.7,1.2h1c-0.2-1.2-1.3-2-2.6-2c-1.7,0-2.9,1.3-2.9,2.9c0,1.6,1.2,2.9,2.9,2.9c1.3,0,2.5-0.8,2.6-2h-1
		C104.4,22,103.7,22.4,102.9,22.4 M97.3,23.1h0.9v-5.6h-0.9V23.1z M97.8,16.1c0.4,0,0.6-0.3,0.6-0.6c0-0.4-0.3-0.6-0.6-0.6
		c-0.4,0-0.6,0.3-0.6,0.6C97.1,15.8,97.4,16.1,97.8,16.1 M94.2,23.1h0.9v-8.5h-0.9V23.1z M92.6,22.2c-0.3,0.1-0.6,0.2-1,0.2
		c-0.8,0-1.2-0.4-1.2-1.3v-2.7h2.1v-0.8h-2v-2h-0.9v2h-1.5v0.8h1.5v2.7c0,1.5,0.7,2.2,2,2.2c0.4,0,0.7-0.1,1.1-0.2L92.6,22.2z
		 M87.5,17.6h-4.8v0.8h3.4l-3.5,4.3v0.4h4.8v-0.8H84l3.5-4.3V17.6z M79.6,18.5v-0.9h-0.9v5.6h0.9v-3.6c0.5-0.8,1.2-1.2,2.1-1.2v-0.9
		C80.9,17.4,80.1,17.8,79.6,18.5 M74,22.4c-1.1,0-2.1-1-2.1-2.1c0-1.1,0.9-2.1,2.1-2.1c0.7,0,1.4,0.3,1.9,1v2.3
		C75.4,22.2,74.8,22.4,74,22.4 M75.8,17.6v0.6c-0.5-0.4-1.1-0.7-1.9-0.7c-1.6,0-2.9,1.3-2.9,2.9c0,1.7,1.3,2.9,2.9,2.9
		c0.8,0,1.5-0.3,1.9-0.7v0.5h0.9v-5.6H75.8z M75.3,16.3c0.4,0,0.6-0.3,0.6-0.6c0-0.4-0.3-0.6-0.6-0.6c-0.4,0-0.6,0.3-0.6,0.6
		C74.7,16,74.9,16.3,75.3,16.3 M73,16.3c0.4,0,0.6-0.3,0.6-0.6c0-0.4-0.3-0.6-0.6-0.6c-0.4,0-0.6,0.3-0.6,0.6
		C72.4,16,72.6,16.3,73,16.3 M65.6,21.4h-0.9c0.2,1.3,1.1,1.9,2.6,1.9c1.4,0,2.4-0.6,2.4-1.7c0-1.1-0.9-1.4-1.7-1.6l-1.1-0.2
		c-0.8-0.2-1.1-0.4-1.1-0.9c0-0.5,0.5-0.8,1.3-0.8c0.9,0,1.5,0.4,1.6,1.1h0.9c-0.1-1.3-1.2-1.8-2.5-1.8c-1.3,0-2.3,0.6-2.3,1.7
		c0,1,0.7,1.3,1.7,1.5l1.2,0.2c0.5,0.1,0.9,0.4,0.9,0.9s-0.6,0.9-1.5,0.9C66.3,22.5,65.8,22.2,65.6,21.4 M62.3,17.6v3.9
		c-0.4,0.6-1.1,1-1.9,1c-1,0-1.7-0.6-1.7-1.8v-3.2h-0.9v3.2c0,1.6,1,2.6,2.4,2.6c0.8,0,1.5-0.3,2-0.8v0.7h0.9v-5.6H62.3z M53.4,22.4
		c-1.1,0-2.1-1-2.1-2.1c0-1.1,0.9-2.1,2.1-2.1c0.7,0,1.4,0.3,1.9,1v2.3C54.7,22.2,54.1,22.4,53.4,22.4 M55.2,17.6v0.6
		c-0.5-0.4-1.1-0.7-1.9-0.7c-1.6,0-2.9,1.3-2.9,2.9c0,1.7,1.3,2.9,2.9,2.9c0.8,0,1.5-0.3,1.9-0.7v0.5h0.9v-5.6H55.2z M47.5,14.9v3.7
		h-4.8v-3.7h-1v8.2h1v-3.6h4.8v3.6h1v-8.2H47.5z"/>
	<path class="st0" d="M123,11.9l-2.3-2.8l2.2-2.8h-1.1L120,8.4l-1.7-2.1h-1.1l2.2,2.8l0,0l-2.3,2.8h1.1l1.8-2.2l1.8,2.2
		C121.8,11.9,123,11.9,123,11.9z M114.8,11.9h0.9V6.3h-0.9V11.9z M115.3,4.8c0.4,0,0.6-0.3,0.6-0.6s-0.3-0.6-0.6-0.6
		s-0.6,0.3-0.6,0.6C114.8,4.5,115,4.8,115.3,4.8 M111.2,7.2V6.3h-0.9v5.6h0.9V8.2c0.5-0.8,1.2-1.2,2.1-1.2V6.1
		C112.5,6.2,111.8,6.6,111.2,7.2 M105.8,11.1h-2.5V8.2h2.6c1.3,0,2,0.5,2,1.4C107.9,10.4,107.1,11.1,105.8,11.1 M105.6,4.5
		c1.1,0,1.9,0.5,1.9,1.3c0,0.9-0.7,1.5-1.9,1.5h-2.2V4.5H105.6z M107,7.6c0.9-0.3,1.4-1,1.4-1.9c0-1.2-1-2.1-2.6-2.1h-3.4v8.2h3.5
		c1.9,0,3-0.9,3-2.2C108.8,8.7,108.2,7.9,107,7.6 M94.1,11.2c-1.1,0-2.1-1-2.1-2.1C92,8,92.9,7,94.1,7c0.7,0,1.4,0.3,1.9,1v2.3
		C95.6,11,94.9,11.2,94.1,11.2 M96,6.3v0.6c-0.5-0.4-1.1-0.7-1.9-0.7c-1.6,0-2.9,1.3-2.9,2.9c0,1.7,1.3,2.9,2.9,2.9
		c0.8,0,1.5-0.3,1.9-0.7v0.6h0.9V6.3H96z M87.4,6.1c-0.8,0-1.5,0.3-2,0.8V6.3h-0.9v5.6h0.9V8c0.4-0.6,1.1-1,1.9-1
		c1,0,1.7,0.6,1.7,1.8v3.2h0.9V8.7C89.7,7.1,88.8,6.1,87.4,6.1 M81.4,11.9h0.9V6.3h-0.9V11.9z M81.8,4.8c0.4,0,0.6-0.3,0.6-0.6
		s-0.3-0.6-0.6-0.6c-0.4,0-0.6,0.3-0.6,0.6S81.5,4.8,81.8,4.8 M77.8,7.2V6.3h-0.9v5.6h0.9V8.2C78.3,7.4,79,7,80,7V6.1
		C79,6.2,78.2,6.6,77.8,7.2 M72,11.2c-1.1,0-2.1-1-2.1-2.1C69.9,8,70.8,7,72,7c0.7,0,1.4,0.3,1.9,1v2.3C73.4,11,72.8,11.2,72,11.2
		 M73.9,6.3v0.6c-0.5-0.4-1.1-0.7-1.9-0.7c-1.6,0-2.9,1.3-2.9,2.9c0,1.7,1.2,2.9,2.9,2.9c0.8,0,1.5-0.3,1.9-0.7v0.6h0.9V6.3H73.9z
		 M65.2,6.1c-0.8,0-1.5,0.3-2,0.8V3.3h-0.9v8.5h0.9V8c0.4-0.6,1.1-1,1.9-1c1,0,1.7,0.6,1.7,1.8v3.2h0.9V8.7
		C67.6,7.1,66.7,6.1,65.2,6.1 M60.8,11c-0.3,0.1-0.6,0.2-1,0.2c-0.8,0-1.2-0.4-1.2-1.3V7.1h2.1V6.3h-2.1v-2h-0.9v2h-1.5v0.8h1.5v2.7
		c0,1.5,0.7,2.2,2,2.2c0.4,0,0.7-0.1,1.1-0.2L60.8,11z M52.4,11.2c-1.1,0-2.1-1-2.1-2.1C50.3,8,51.1,7,52.4,7c0.7,0,1.4,0.3,1.9,1
		v2.3C53.8,11,53.1,11.2,52.4,11.2 M54.2,6.3v0.6c-0.5-0.4-1.1-0.7-1.9-0.7c-1.6,0-2.9,1.3-2.9,2.9c0,1.7,1.2,2.9,2.9,2.9
		c0.8,0,1.5-0.3,1.9-0.7v0.6h0.9V6.3H54.2z M47.6,11.9h1.2L45,7.4l3.5-3.7h-1.1l-4.6,4.8V3.7h-1v8.2h1V9.8l1.6-1.7L47.6,11.9z"/>
	<path class="st1" d="M28.4,11.9c0,2.6-1.3,4.8-3.3,6.1l-4.8-4.8c-1.5-1.5-3.5-2.4-5.7-2.4l0,0c-0.4,0-0.7,0.1-1.1,0.1V4.5h7.4
		C25.1,4.5,28.4,7.9,28.4,11.9 M9.7,14.1c1.3-1.3,3-2,4.8-2l0,0c1.9,0,3.5,0.7,4.8,2l4.2,4.2h-8.5c-0.4,0-0.6,0.3-0.6,0.6
		c0,0.4,0.3,0.6,0.6,0.6h8.5l-4.2,4.2c-1.3,1.3-3,2-4.8,2l0,0l0,0c-1.9,0-3.6-0.7-4.8-2l-4.8-4.8L9.7,14.1z M13.5,26.9
		c0.4,0,0.7,0.1,1.1,0.1l0,0c2.2,0,4.2-0.9,5.7-2.4l4.8-4.8c1.9,1.3,3.3,3.5,3.3,6.1c0,4.1-3.3,7.4-7.4,7.4h-7.4L13.5,26.9
		L13.5,26.9z M29.6,11.9c0-4.8-3.9-8.6-8.6-8.6h-8.6v7.8c-1.3,0.4-2.5,1.1-3.5,2L3,18.9l5.7,5.7c1,1,2.2,1.7,3.5,2v7.9h8.6
		c4.8,0,8.6-3.9,8.6-8.6c0-2.9-1.4-5.4-3.5-7l0,0l0,0C28.2,17.4,29.6,14.8,29.6,11.9"/>
</g>
</svg>
