<?xml version="1.0" encoding="utf-8"?>
<!-- Generator: Adobe Illustrator 27.7.0, SVG Export Plug-In . SVG Version: 6.00 Build 0)  -->
<svg version="1.1" id="Ebene_1" xmlns="http://www.w3.org/2000/svg" xmlns:xlink="http://www.w3.org/1999/xlink" x="0px" y="0px"
	 viewBox="0 0 141.732 42.52" enable-background="new 0 0 141.732 42.52" xml:space="preserve">
<g>
	<path fill="#244F50" d="M79.639,36.815h-0.971c0.192,1.492,1.34,2.162,2.956,2.162c1.561,0,2.682-0.697,2.682-1.943
		c0-1.218-0.97-1.629-1.888-1.78l-1.26-0.205c-0.862-0.151-1.177-0.493-1.177-0.959c0-0.575,0.575-0.945,1.533-0.945
		c1.014,0,1.685,0.37,1.795,1.164h0.97c-0.123-1.505-1.436-2.011-2.765-2.011c-1.533,0-2.572,0.711-2.572,1.888
		c0,1.082,0.847,1.547,1.888,1.725l1.438,0.233c0.616,0.11,1.041,0.425,1.041,0.959c0,0.643-0.672,1.013-1.658,1.013
		C80.487,38.116,79.83,37.664,79.639,36.815 M75.766,38.812h1.039v-6.35h-1.039V38.812z M76.272,30.764
		c0.396,0,0.711-0.301,0.711-0.684c0-0.396-0.315-0.697-0.711-0.697c-0.397,0-0.697,0.301-0.697,0.697
		C75.575,30.463,75.875,30.764,76.272,30.764 M74.04,38.812l-2.573-3.188l2.532-3.161h-1.273l-1.957,2.395l-1.943-2.395H67.54
		l2.531,3.161l0.014,0.014l-2.586,3.174h1.259l2.025-2.463l1.998,2.463H74.04z M62.83,38.02c-1.342,0-2.369-1.068-2.369-2.382
		c0-1.315,1.027-2.383,2.369-2.383c0.835,0,1.575,0.315,2.095,1.082v2.601C64.405,37.705,63.665,38.02,62.83,38.02 M64.925,32.463
		v0.655c-0.561-0.519-1.328-0.82-2.232-0.82c-1.821,0-3.271,1.491-3.271,3.34c0,1.862,1.45,3.339,3.271,3.339
		c0.904,0,1.671-0.301,2.232-0.82v0.655h1.039v-6.349H64.925z M56.053,33.501v-1.038h-1.038v6.349h1.038V34.68
		c0.561-0.878,1.41-1.357,2.45-1.384v-0.984C57.491,32.312,56.642,32.749,56.053,33.501 M49.908,34.803h-2.164V30.49h2.164
		c1.534,0,2.561,0.849,2.561,2.109C52.469,33.927,51.442,34.803,49.908,34.803 M49.949,29.506h-3.284v9.306h1.079v-3.011h2.068
		c2.232,0,3.723-1.271,3.723-3.202C53.535,30.736,52.099,29.506,49.949,29.506"/>
	<path fill="#244F50" d="M131.792,20.424c1.205,0,2.013,0.754,2.068,2.014h-4.259C129.752,21.315,130.532,20.424,131.792,20.424
		 M131.792,19.522c-1.917,0-3.257,1.464-3.257,3.339c0,1.876,1.354,3.34,3.312,3.34c1.369,0,2.464-0.656,2.86-1.751h-1.162
		c-0.274,0.534-0.89,0.822-1.698,0.822c-1.328,0-2.136-0.918-2.26-2.096h5.312C135.104,21.095,133.832,19.522,131.792,19.522
		 M124.154,19.522c-0.904,0-1.684,0.315-2.273,0.875v-4.078h-1.039v9.717h1.039v-4.462c0.548-0.712,1.328-1.095,2.081-1.095
		c1.123,0,1.877,0.684,1.877,1.971v3.586h1.038v-3.641C126.877,20.602,125.77,19.522,124.154,19.522 M116.008,25.244
		c-1.382,0-2.286-1.054-2.286-2.382c0-1.315,0.904-2.383,2.286-2.383c0.986,0,1.725,0.548,1.917,1.383h1.081
		c-0.246-1.397-1.464-2.34-2.998-2.34c-1.93,0-3.324,1.464-3.324,3.34s1.394,3.339,3.324,3.339c1.534,0,2.752-0.943,2.998-2.326
		h-1.081C117.733,24.71,116.994,25.244,116.008,25.244 M109.672,26.036h1.039v-6.35h-1.039V26.036z M110.178,17.988
		c0.397,0,0.711-0.301,0.711-0.684c0-0.396-0.314-0.697-0.711-0.697c-0.396,0-0.697,0.301-0.697,0.697
		C109.481,17.687,109.782,17.988,110.178,17.988 M106.209,26.036h1.039v-9.717h-1.039V26.036z M104.428,25.011
		c-0.342,0.124-0.739,0.22-1.095,0.22c-0.904,0-1.369-0.452-1.369-1.548v-3.108h2.396v-0.888h-2.396v-2.341h-1.039v2.341h-1.656
		v0.888h1.656v3.108c0,1.657,0.752,2.518,2.312,2.518c0.383,0,0.821-0.055,1.342-0.233L104.428,25.011z M98.597,19.687h-5.364v0.888
		h3.859l-3.996,4.929v0.532h5.501v-0.888h-3.955l3.955-4.86V19.687z M89.645,20.725v-1.038h-1.039v6.349h1.039v-4.132
		c0.561-0.878,1.41-1.357,2.45-1.384v-0.984C91.082,19.536,90.233,19.973,89.645,20.725 M83.225,25.244
		c-1.341,0-2.368-1.068-2.368-2.382c0-1.315,1.027-2.383,2.368-2.383c0.836,0,1.575,0.315,2.096,1.082v2.601
		C84.8,24.929,84.061,25.244,83.225,25.244 M85.321,19.687v0.655c-0.562-0.519-1.329-0.82-2.233-0.82c-1.819,0-3.27,1.491-3.27,3.34
		c0,1.862,1.451,3.339,3.27,3.339c0.904,0,1.671-0.301,2.233-0.82v0.655h1.038v-6.349H85.321z M84.69,18.207
		c0.397,0,0.725-0.301,0.725-0.698c0-0.396-0.328-0.711-0.725-0.711c-0.41,0-0.724,0.315-0.724,0.711
		C83.966,17.906,84.28,18.207,84.69,18.207 M82.076,18.207c0.41,0,0.724-0.301,0.724-0.698c0-0.396-0.314-0.711-0.724-0.711
		c-0.397,0-0.725,0.315-0.725,0.711C81.351,17.906,81.679,18.207,82.076,18.207 M73.698,24.039h-0.97
		c0.191,1.492,1.339,2.162,2.955,2.162c1.562,0,2.683-0.697,2.683-1.943c0-1.218-0.971-1.629-1.888-1.78l-1.26-0.205
		c-0.863-0.151-1.178-0.493-1.178-0.959c0-0.575,0.575-0.945,1.534-0.945c1.013,0,1.684,0.37,1.794,1.164h0.97
		c-0.123-1.505-1.436-2.011-2.764-2.011c-1.534,0-2.573,0.711-2.573,1.888c0,1.082,0.848,1.547,1.888,1.725l1.438,0.233
		c0.616,0.11,1.041,0.425,1.041,0.959c0,0.643-0.671,1.013-1.657,1.013C74.547,25.34,73.89,24.888,73.698,24.039 M69.88,19.687
		v4.435c-0.547,0.725-1.328,1.122-2.081,1.122c-1.123,0-1.876-0.712-1.876-1.998v-3.559h-1.039V23.3
		c0,1.794,1.107,2.901,2.723,2.901c0.904,0,1.685-0.328,2.273-0.888v0.723h1.039v-6.349H69.88z M59.764,25.244
		c-1.342,0-2.369-1.068-2.369-2.382c0-1.315,1.027-2.383,2.369-2.383c0.835,0,1.575,0.315,2.095,1.082v2.601
		C61.339,24.929,60.599,25.244,59.764,25.244 M61.859,19.687v0.655c-0.561-0.519-1.328-0.82-2.232-0.82
		c-1.821,0-3.271,1.491-3.271,3.34c0,1.862,1.45,3.339,3.271,3.339c0.904,0,1.671-0.301,2.232-0.82v0.655h1.039v-6.349H61.859z
		 M53.208,16.73v4.202h-5.463V16.73h-1.08v9.306h1.08V21.93h5.463v4.106h1.08V16.73H53.208z"/>
	<path fill="#244F50" d="M138.923,13.26l-2.573-3.189l2.532-3.161h-1.273l-1.957,2.395l-1.943-2.395h-1.287l2.532,3.161l0.014,0.014
		l-2.587,3.175h1.259l2.026-2.463l1.998,2.463H138.923z M129.644,13.26h1.039V6.91h-1.039V13.26z M130.149,5.211
		c0.397,0,0.711-0.301,0.711-0.683c0-0.397-0.314-0.698-0.711-0.698c-0.396,0-0.697,0.301-0.697,0.698
		C129.452,4.91,129.753,5.211,130.149,5.211 M125.508,7.949V6.91h-1.039v6.35h1.039V9.127c0.561-0.877,1.41-1.356,2.45-1.383V6.76
		C126.945,6.76,126.097,7.197,125.508,7.949 M119.294,12.304h-2.848V9.003h2.876c1.465,0,2.341,0.589,2.341,1.602
		C121.663,11.578,120.787,12.304,119.294,12.304 M119.116,4.91c1.315,0,2.109,0.589,2.109,1.52c0,1.027-0.808,1.671-2.246,1.671
		h-2.533V4.91H119.116z M120.677,8.443c0.999-0.301,1.573-1.109,1.573-2.136c0-1.438-1.148-2.353-3.024-2.353h-3.859v9.306h3.968
		c2.068,0,3.394-1.025,3.394-2.545C122.729,9.564,122.046,8.675,120.677,8.443 M106.14,12.468c-1.342,0-2.369-1.068-2.369-2.383
		c0-1.314,1.027-2.383,2.369-2.383c0.835,0,1.575,0.315,2.095,1.082v2.602C107.715,12.153,106.975,12.468,106.14,12.468
		 M108.235,6.91v0.656c-0.561-0.519-1.328-0.82-2.232-0.82c-1.821,0-3.271,1.491-3.271,3.339c0,1.862,1.45,3.339,3.271,3.339
		c0.904,0,1.671-0.3,2.232-0.82v0.656h1.039V6.91H108.235z M98.351,6.746c-0.904,0-1.684,0.314-2.273,0.875V6.91h-1.039v6.35h1.039
		V8.798c0.548-0.712,1.328-1.096,2.082-1.096c1.123,0,1.876,0.685,1.876,1.972v3.586h1.038V9.619
		C101.074,7.826,99.967,6.746,98.351,6.746 M91.59,13.26h1.039V6.91H91.59V13.26z M92.096,5.211c0.396,0,0.711-0.301,0.711-0.683
		c0-0.397-0.315-0.698-0.711-0.698c-0.397,0-0.698,0.301-0.698,0.698C91.398,4.91,91.699,5.211,92.096,5.211 M87.454,7.949V6.91
		h-1.038v6.35h1.038V9.127c0.562-0.877,1.41-1.356,2.451-1.383V6.76C88.892,6.76,88.043,7.197,87.454,7.949 M81.036,12.468
		c-1.342,0-2.369-1.068-2.369-2.383c0-1.314,1.027-2.383,2.369-2.383c0.835,0,1.574,0.315,2.095,1.082v2.602
		C82.61,12.153,81.871,12.468,81.036,12.468 M83.131,6.91v0.656c-0.562-0.519-1.329-0.82-2.232-0.82
		c-1.822,0-3.271,1.491-3.271,3.339c0,1.862,1.449,3.339,3.271,3.339c0.903,0,1.67-0.3,2.232-0.82v0.656h1.038V6.91H83.131z
		 M73.247,6.746c-0.904,0-1.684,0.314-2.273,0.875V3.543h-1.039v9.717h1.039V8.798c0.547-0.712,1.328-1.096,2.081-1.096
		c1.123,0,1.876,0.685,1.876,1.972v3.586h1.039V9.619C75.97,7.826,74.863,6.746,73.247,6.746 M68.154,12.235
		c-0.342,0.123-0.739,0.219-1.095,0.219c-0.904,0-1.369-0.452-1.369-1.547V7.798h2.395V6.91H65.69V4.57h-1.039v2.34h-1.656v0.888
		h1.656v3.109c0,1.656,0.752,2.517,2.312,2.517c0.383,0,0.821-0.054,1.341-0.232L68.154,12.235z M58.696,12.468
		c-1.342,0-2.369-1.068-2.369-2.383c0-1.314,1.027-2.383,2.369-2.383c0.835,0,1.575,0.315,2.095,1.082v2.602
		C60.271,12.153,59.531,12.468,58.696,12.468 M60.791,6.91v0.656c-0.561-0.519-1.328-0.82-2.232-0.82
		c-1.821,0-3.271,1.491-3.271,3.339c0,1.862,1.45,3.339,3.271,3.339c0.904,0,1.671-0.3,2.232-0.82v0.656h1.039V6.91H60.791z
		 M53.343,13.26h1.396L50.29,8.169l3.97-4.215h-1.328l-5.188,5.419V3.954h-1.079v9.306h1.079v-2.395l1.807-1.902L53.343,13.26z"/>
	<path fill="#7FC299" d="M31.467,13.333c0,2.878-1.472,5.394-3.682,6.913l-5.476-5.477c-1.734-1.733-4.037-2.686-6.485-2.686h-0.036
		c-0.4,0-0.787,0.065-1.177,0.115V4.905h8.428C27.685,4.905,31.467,8.686,31.467,13.333 M10.262,15.733
		c1.476-1.476,3.438-2.288,5.529-2.288h0.031c2.086,0,4.048,0.813,5.524,2.288l4.845,4.845H16.53c-0.376,0-0.681,0.305-0.681,0.682
		c0,0.376,0.305,0.681,0.681,0.681h9.66l-4.844,4.845c-1.477,1.476-3.441,2.288-5.532,2.288h-0.013h-0.012
		c-2.088,0-4.051-0.812-5.527-2.288l-5.526-5.527L10.262,15.733z M14.611,30.321c0.39,0.05,0.776,0.115,1.175,0.115h0.03
		c2.453,0,4.759-0.954,6.493-2.687l5.475-5.477c2.21,1.52,3.683,4.036,3.683,6.914c0,4.647-3.782,8.428-8.428,8.428h-8.428V30.321z
		 M32.829,13.333c0-5.398-4.392-9.79-9.79-9.79h-9.79v8.938c-1.473,0.424-2.836,1.175-3.951,2.288l-6.488,6.49l6.488,6.49
		c1.115,1.113,2.478,1.865,3.951,2.289v8.938h9.79c5.398,0,9.79-4.392,9.79-9.79c0-3.251-1.601-6.129-4.048-7.91l0.017-0.017
		l-0.016-0.016C31.228,19.462,32.829,16.584,32.829,13.333"/>
</g>
<g>
</g>
<g>
</g>
<g>
</g>
<g>
</g>
<g>
</g>
<g>
</g>
</svg>
